REM DIRINDEX 1\2,1\3,1\4,1\5,1\6
REM DIRNAME folder01,folder02,folder03,folder04,folder05,folder06
TITLE ""
FILE "Disc5Track31.mp3" MP3
  TRACK 01 AUDIO
    TITLE "3:cjc030_09082"
    INDEX 01 00:00:00
  TRACK 02 AUDIO
    TITLE "0:"
    INDEX 01 00:00:72
  TRACK 03 AUDIO
    TITLE "4:cjc030_09083"
    INDEX 01 00:01:07
  TRACK 04 AUDIO
    TITLE "0:"
    INDEX 01 00:02:65
  TRACK 05 AUDIO
    TITLE "5:cjc030_09084"
    INDEX 01 00:02:73
  TRACK 06 AUDIO
    TITLE "0:"
    INDEX 01 00:04:01
  TRACK 07 AUDIO
    TITLE "6:cjc030_09085"
    INDEX 01 00:04:17
  TRACK 08 AUDIO
    TITLE "0:"
    INDEX 01 00:07:00
  TRACK 09 AUDIO
    TITLE "3:cjc030_09086"
    INDEX 01 00:07:51
  TRACK 10 AUDIO
    TITLE "0:"
    INDEX 01 00:08:60
  TRACK 11 AUDIO
    TITLE "4:cjc030_09087"
    INDEX 01 00:08:66
  TRACK 12 AUDIO
    TITLE "0:"
    INDEX 01 00:09:69
  TRACK 13 AUDIO
    TITLE "5:cjc030_09088"
    INDEX 01 00:10:04
  TRACK 14 AUDIO
    TITLE "0:"
    INDEX 01 00:11:09
  TRACK 15 AUDIO
    TITLE "6:cjc030_09089"
    INDEX 01 00:11:27
  TRACK 16 AUDIO
    TITLE "0:"
    INDEX 01 00:14:54
  TRACK 17 AUDIO
    TITLE "3:cjc030_09090"
    INDEX 01 00:15:30
  TRACK 18 AUDIO
    TITLE "0:"
    INDEX 01 00:16:44
  TRACK 19 AUDIO
    TITLE "4:cjc030_09091"
    INDEX 01 00:16:51
  TRACK 20 AUDIO
    TITLE "0:"
    INDEX 01 00:17:55
  TRACK 21 AUDIO
    TITLE "5:cjc030_09092"
    INDEX 01 00:17:67
  TRACK 22 AUDIO
    TITLE "0:"
    INDEX 01 00:19:03
  TRACK 23 AUDIO
    TITLE "6:cjc030_09093"
    INDEX 01 00:19:18
  TRACK 24 AUDIO
    TITLE "0:"
    INDEX 01 00:21:72
  TRACK 25 AUDIO
    TITLE "3:cjc030_09094"
    INDEX 01 00:22:48
  TRACK 26 AUDIO
    TITLE "0:"
    INDEX 01 00:23:71
  TRACK 27 AUDIO
    TITLE "4:cjc030_09095"
    INDEX 01 00:24:04
  TRACK 28 AUDIO
    TITLE "0:"
    INDEX 01 00:26:20
  TRACK 29 AUDIO
    TITLE "5:cjc030_09096"
    INDEX 01 00:26:30
  TRACK 30 AUDIO
    TITLE "0:"
    INDEX 01 00:27:51
  TRACK 31 AUDIO
    TITLE "6:cjc030_09097"
    INDEX 01 00:27:67
  TRACK 32 AUDIO
    TITLE "0:"
    INDEX 01 00:31:43
  TRACK 33 AUDIO
    TITLE "3:cjc030_09098"
    INDEX 01 00:32:15
  TRACK 34 AUDIO
    TITLE "0:"
    INDEX 01 00:33:28
  TRACK 35 AUDIO
    TITLE "4:cjc030_09099"
    INDEX 01 00:33:36
  TRACK 36 AUDIO
    TITLE "0:"
    INDEX 01 00:35:00
  TRACK 37 AUDIO
    TITLE "5:cjc030_09100"
    INDEX 01 00:35:10
  TRACK 38 AUDIO
    TITLE "0:"
    INDEX 01 00:36:21
  TRACK 39 AUDIO
    TITLE "6:cjc030_09101"
    INDEX 01 00:36:35
  TRACK 40 AUDIO
    TITLE "0:"
    INDEX 01 00:38:45
  TRACK 41 AUDIO
    TITLE "3:cjc030_09102"
    INDEX 01 00:39:19
  TRACK 42 AUDIO
    TITLE "0:"
    INDEX 01 00:40:36
  TRACK 43 AUDIO
    TITLE "4:cjc030_09103"
    INDEX 01 00:40:42
  TRACK 44 AUDIO
    TITLE "0:"
    INDEX 01 00:41:36
  TRACK 45 AUDIO
    TITLE "5:cjc030_09104"
    INDEX 01 00:41:45
  TRACK 46 AUDIO
    TITLE "0:"
    INDEX 01 00:42:61
  TRACK 47 AUDIO
    TITLE "6:cjc030_09105"
    INDEX 01 00:42:74
  TRACK 48 AUDIO
    TITLE "0:"
    INDEX 01 00:45:69
  TRACK 49 AUDIO
    TITLE "3:cjc030_09106"
    INDEX 01 00:46:43
  TRACK 50 AUDIO
    TITLE "0:"
    INDEX 01 00:47:64
  TRACK 51 AUDIO
    TITLE "4:cjc030_09107"
    INDEX 01 00:47:72
  TRACK 52 AUDIO
    TITLE "0:"
    INDEX 01 00:49:74
  TRACK 53 AUDIO
    TITLE "5:cjc030_09108"
    INDEX 01 00:50:09
  TRACK 54 AUDIO
    TITLE "0:"
    INDEX 01 00:51:24
  TRACK 55 AUDIO
    TITLE "6:cjc030_09109"
    INDEX 01 00:51:42
  TRACK 56 AUDIO
    TITLE "0:"
    INDEX 01 00:55:12
  TRACK 57 AUDIO
    TITLE "3:cjc030_09110"
    INDEX 01 00:55:61
  TRACK 58 AUDIO
    TITLE "0:"
    INDEX 01 00:57:09
  TRACK 59 AUDIO
    TITLE "4:cjc030_09111"
    INDEX 01 00:57:15
  TRACK 60 AUDIO
    TITLE "0:"
    INDEX 01 00:58:58
  TRACK 61 AUDIO
    TITLE "5:cjc030_09112"
    INDEX 01 00:58:67
  TRACK 62 AUDIO
    TITLE "0:"
    INDEX 01 01:00:12
  TRACK 63 AUDIO
    TITLE "3:cjc030_09113"
    INDEX 01 01:00:64
  TRACK 64 AUDIO
    TITLE "0:"
    INDEX 01 01:02:03
  TRACK 65 AUDIO
    TITLE "4:cjc030_09114"
    INDEX 01 01:02:06
  TRACK 66 AUDIO
    TITLE "0:"
    INDEX 01 01:04:09
  TRACK 67 AUDIO
    TITLE "5:cjc030_09115"
    INDEX 01 01:04:19
  TRACK 68 AUDIO
    TITLE "0:"
    INDEX 01 01:05:28
  TRACK 69 AUDIO
    TITLE "3:cjc030_09116"
    INDEX 01 01:06:06
  TRACK 70 AUDIO
    TITLE "0:"
    INDEX 01 01:07:17
  TRACK 71 AUDIO
    TITLE "4:cjc030_09117"
    INDEX 01 01:07:27
  TRACK 72 AUDIO
    TITLE "0:"
    INDEX 01 01:08:29
  TRACK 73 AUDIO
    TITLE "5:cjc030_09118"
    INDEX 01 01:08:36
  TRACK 74 AUDIO
    TITLE "0:"
    INDEX 01 01:09:48
  TRACK 75 AUDIO
    TITLE "6:cjc030_09119"
    INDEX 01 01:09:65
  TRACK 76 AUDIO
    TITLE "0:"
    INDEX 01 01:12:40
  TRACK 77 AUDIO
    TITLE "3:cjc030_09120"
    INDEX 01 01:13:14
  TRACK 78 AUDIO
    TITLE "0:"
    INDEX 01 01:14:35
  TRACK 79 AUDIO
    TITLE "4:cjc030_09121"
    INDEX 01 01:14:43
  TRACK 80 AUDIO
    TITLE "0:"
    INDEX 01 01:16:40
  TRACK 81 AUDIO
    TITLE "5:cjc030_09122"
    INDEX 01 01:16:48
  TRACK 82 AUDIO
    TITLE "0:"
    INDEX 01 01:17:69
  TRACK 83 AUDIO
    TITLE "3:cjc030_09123"
    INDEX 01 01:18:37
  TRACK 84 AUDIO
    TITLE "0:"
    INDEX 01 01:19:72
  TRACK 85 AUDIO
    TITLE "4:cjc030_09124"
    INDEX 01 01:20:04
  TRACK 86 AUDIO
    TITLE "0:"
    INDEX 01 01:22:15
  TRACK 87 AUDIO
    TITLE "5:cjc030_09125"
    INDEX 01 01:22:21
  TRACK 88 AUDIO
    TITLE "0:"
    INDEX 01 01:23:54
  TRACK 89 AUDIO
    TITLE "6:cjc030_09126"
    INDEX 01 01:23:69
  TRACK 90 AUDIO
    TITLE "0:"
    INDEX 01 01:26:52
  TRACK 91 AUDIO
    TITLE "3:cjc030_09127"
    INDEX 01 01:27:26
  TRACK 92 AUDIO
    TITLE "0:"
    INDEX 01 01:28:33
  TRACK 93 AUDIO
    TITLE "4:cjc030_09128"
    INDEX 01 01:28:39
  TRACK 94 AUDIO
    TITLE "0:"
    INDEX 01 01:30:67
  TRACK 95 AUDIO
    TITLE "5:cjc030_09129"
    INDEX 01 01:31:04
  TRACK 96 AUDIO
    TITLE "0:"
    INDEX 01 01:32:10
  TRACK 97 AUDIO
    TITLE "6:cjc030_09130"
    INDEX 01 01:32:23
  TRACK 98 AUDIO
    TITLE "0:"
    INDEX 01 01:34:03
  TRACK 99 AUDIO
    TITLE "3:cjc030_09131"
    INDEX 01 01:34:50
  TRACK 100 AUDIO
    TITLE "0:"
    INDEX 01 01:35:59
  TRACK 101 AUDIO
    TITLE "4:cjc030_09132"
    INDEX 01 01:35:67
  TRACK 102 AUDIO
    TITLE "0:"
    INDEX 01 01:37:52
  TRACK 103 AUDIO
    TITLE "5:cjc030_09133"
    INDEX 01 01:37:58
  TRACK 104 AUDIO
    TITLE "0:"
    INDEX 01 01:38:69
  TRACK 105 AUDIO
    TITLE "6:cjc030_09134"
    INDEX 01 01:39:10
  TRACK 106 AUDIO
    TITLE "0:"
    INDEX 01 01:40:72
